<mxfile host="Electron" agent="Mozilla/5.0 (X11; Linux x86_64) AppleWebKit/537.36 (KHTML, like Gecko) draw.io/24.7.17 Chrome/128.0.6613.36 Electron/32.0.1 Safari/537.36" version="24.7.17">
  <diagram name="Страница — 1" id="YHA3pZnFp0XXBxZ4jFpu">
    <mxGraphModel dx="1228" dy="698" grid="1" gridSize="10" guides="1" tooltips="1" connect="1" arrows="1" fold="1" page="1" pageScale="1" pageWidth="827" pageHeight="1169" math="0" shadow="0">
      <root>
        <mxCell id="0" />
        <mxCell id="1" parent="0" />
        <mxCell id="GPZ7lqjeVTmN1H2Yv92S-26" style="edgeStyle=orthogonalEdgeStyle;rounded=0;orthogonalLoop=1;jettySize=auto;html=1;" edge="1" parent="1" source="GPZ7lqjeVTmN1H2Yv92S-5" target="GPZ7lqjeVTmN1H2Yv92S-16">
          <mxGeometry relative="1" as="geometry">
            <Array as="points">
              <mxPoint x="300" y="90" />
            </Array>
          </mxGeometry>
        </mxCell>
        <mxCell id="GPZ7lqjeVTmN1H2Yv92S-5" value="app" style="ellipse;shape=cloud;whiteSpace=wrap;html=1;" vertex="1" parent="1">
          <mxGeometry x="120" y="60" width="120" height="60" as="geometry" />
        </mxCell>
        <mxCell id="GPZ7lqjeVTmN1H2Yv92S-17" style="edgeStyle=orthogonalEdgeStyle;rounded=0;orthogonalLoop=1;jettySize=auto;html=1;entryX=0;entryY=0.5;entryDx=0;entryDy=0;" edge="1" parent="1" source="GPZ7lqjeVTmN1H2Yv92S-8" target="GPZ7lqjeVTmN1H2Yv92S-15">
          <mxGeometry relative="1" as="geometry">
            <Array as="points">
              <mxPoint x="30" y="230" />
            </Array>
          </mxGeometry>
        </mxCell>
        <mxCell id="GPZ7lqjeVTmN1H2Yv92S-24" style="edgeStyle=orthogonalEdgeStyle;rounded=0;orthogonalLoop=1;jettySize=auto;html=1;" edge="1" parent="1" target="GPZ7lqjeVTmN1H2Yv92S-5">
          <mxGeometry relative="1" as="geometry">
            <mxPoint x="30" y="210" as="sourcePoint" />
            <Array as="points">
              <mxPoint x="30" y="90" />
            </Array>
          </mxGeometry>
        </mxCell>
        <mxCell id="GPZ7lqjeVTmN1H2Yv92S-8" value="" style="shape=umlActor;verticalLabelPosition=bottom;verticalAlign=top;html=1;outlineConnect=0;" vertex="1" parent="1">
          <mxGeometry x="20" y="150" width="20" height="40" as="geometry" />
        </mxCell>
        <mxCell id="GPZ7lqjeVTmN1H2Yv92S-12" value="telegram bot" style="rounded=1;whiteSpace=wrap;html=1;" vertex="1" parent="1">
          <mxGeometry x="60" y="250" width="140" height="30" as="geometry" />
        </mxCell>
        <mxCell id="GPZ7lqjeVTmN1H2Yv92S-20" style="edgeStyle=orthogonalEdgeStyle;rounded=0;orthogonalLoop=1;jettySize=auto;html=1;" edge="1" parent="1" source="GPZ7lqjeVTmN1H2Yv92S-15" target="GPZ7lqjeVTmN1H2Yv92S-16">
          <mxGeometry relative="1" as="geometry" />
        </mxCell>
        <mxCell id="GPZ7lqjeVTmN1H2Yv92S-22" value="authcode&lt;div&gt;8036&lt;/div&gt;" style="edgeLabel;html=1;align=center;verticalAlign=middle;resizable=0;points=[];" vertex="1" connectable="0" parent="GPZ7lqjeVTmN1H2Yv92S-20">
          <mxGeometry x="-0.221" relative="1" as="geometry">
            <mxPoint x="-35" y="-30" as="offset" />
          </mxGeometry>
        </mxCell>
        <mxCell id="GPZ7lqjeVTmN1H2Yv92S-23" style="edgeStyle=orthogonalEdgeStyle;rounded=0;orthogonalLoop=1;jettySize=auto;html=1;" edge="1" parent="1" source="GPZ7lqjeVTmN1H2Yv92S-15" target="GPZ7lqjeVTmN1H2Yv92S-8">
          <mxGeometry relative="1" as="geometry">
            <Array as="points">
              <mxPoint x="120" y="170" />
            </Array>
          </mxGeometry>
        </mxCell>
        <mxCell id="GPZ7lqjeVTmN1H2Yv92S-15" value="/start" style="rounded=0;whiteSpace=wrap;html=1;" vertex="1" parent="1">
          <mxGeometry x="100" y="220" width="50" height="20" as="geometry" />
        </mxCell>
        <mxCell id="GPZ7lqjeVTmN1H2Yv92S-16" value="{8036:tguser}" style="rounded=0;whiteSpace=wrap;html=1;" vertex="1" parent="1">
          <mxGeometry x="240" y="220" width="120" height="20" as="geometry" />
        </mxCell>
        <mxCell id="GPZ7lqjeVTmN1H2Yv92S-19" value="redis" style="rounded=1;whiteSpace=wrap;html=1;" vertex="1" parent="1">
          <mxGeometry x="230" y="250" width="140" height="30" as="geometry" />
        </mxCell>
        <mxCell id="GPZ7lqjeVTmN1H2Yv92S-25" value="8036" style="text;html=1;align=center;verticalAlign=middle;whiteSpace=wrap;rounded=0;" vertex="1" parent="1">
          <mxGeometry x="30" y="90" width="60" height="30" as="geometry" />
        </mxCell>
        <mxCell id="GPZ7lqjeVTmN1H2Yv92S-27" value="auth" style="text;html=1;align=center;verticalAlign=middle;whiteSpace=wrap;rounded=0;" vertex="1" parent="1">
          <mxGeometry x="150" y="10" width="60" height="30" as="geometry" />
        </mxCell>
        <mxCell id="GPZ7lqjeVTmN1H2Yv92S-32" value="" style="rounded=1;whiteSpace=wrap;html=1;fontSize=10;" vertex="1" parent="1">
          <mxGeometry x="140" y="470" width="100" height="90" as="geometry" />
        </mxCell>
        <mxCell id="GPZ7lqjeVTmN1H2Yv92S-30" value="tgid" style="rounded=0;whiteSpace=wrap;html=1;" vertex="1" parent="1">
          <mxGeometry x="150" y="510" width="80" height="40" as="geometry" />
        </mxCell>
        <mxCell id="GPZ7lqjeVTmN1H2Yv92S-33" value="hash" style="text;html=1;align=center;verticalAlign=middle;whiteSpace=wrap;rounded=0;" vertex="1" parent="1">
          <mxGeometry x="160" y="474" width="60" height="30" as="geometry" />
        </mxCell>
        <mxCell id="GPZ7lqjeVTmN1H2Yv92S-34" value="" style="rounded=1;whiteSpace=wrap;html=1;fontSize=10;" vertex="1" parent="1">
          <mxGeometry x="280" y="470" width="100" height="90" as="geometry" />
        </mxCell>
        <mxCell id="GPZ7lqjeVTmN1H2Yv92S-36" value="AES" style="text;html=1;align=center;verticalAlign=middle;whiteSpace=wrap;rounded=0;" vertex="1" parent="1">
          <mxGeometry x="300" y="474" width="60" height="30" as="geometry" />
        </mxCell>
        <mxCell id="GPZ7lqjeVTmN1H2Yv92S-42" style="edgeStyle=orthogonalEdgeStyle;rounded=0;orthogonalLoop=1;jettySize=auto;html=1;" edge="1" parent="1" source="GPZ7lqjeVTmN1H2Yv92S-35" target="GPZ7lqjeVTmN1H2Yv92S-37">
          <mxGeometry relative="1" as="geometry">
            <Array as="points">
              <mxPoint x="330" y="580" />
              <mxPoint x="70" y="580" />
            </Array>
          </mxGeometry>
        </mxCell>
        <mxCell id="GPZ7lqjeVTmN1H2Yv92S-35" value="private key" style="rounded=0;whiteSpace=wrap;html=1;" vertex="1" parent="1">
          <mxGeometry x="290" y="510" width="80" height="40" as="geometry" />
        </mxCell>
        <mxCell id="GPZ7lqjeVTmN1H2Yv92S-38" style="edgeStyle=orthogonalEdgeStyle;rounded=0;orthogonalLoop=1;jettySize=auto;html=1;" edge="1" parent="1" source="GPZ7lqjeVTmN1H2Yv92S-37" target="GPZ7lqjeVTmN1H2Yv92S-30">
          <mxGeometry relative="1" as="geometry" />
        </mxCell>
        <mxCell id="GPZ7lqjeVTmN1H2Yv92S-64" style="edgeStyle=orthogonalEdgeStyle;rounded=0;orthogonalLoop=1;jettySize=auto;html=1;" edge="1" parent="1">
          <mxGeometry relative="1" as="geometry">
            <mxPoint x="70" y="510" as="sourcePoint" />
            <mxPoint x="70" y="470" as="targetPoint" />
            <Array as="points">
              <mxPoint x="70" y="510" />
              <mxPoint x="70" y="510" />
            </Array>
          </mxGeometry>
        </mxCell>
        <mxCell id="GPZ7lqjeVTmN1H2Yv92S-37" value="&amp;nbsp; &amp;nbsp; &amp;nbsp; &amp;nbsp;auth" style="text;html=1;align=center;verticalAlign=middle;whiteSpace=wrap;rounded=0;" vertex="1" parent="1">
          <mxGeometry x="30" y="515" width="60" height="30" as="geometry" />
        </mxCell>
        <mxCell id="GPZ7lqjeVTmN1H2Yv92S-41" style="edgeStyle=orthogonalEdgeStyle;rounded=0;orthogonalLoop=1;jettySize=auto;html=1;entryX=0;entryY=0.5;entryDx=0;entryDy=0;" edge="1" parent="1" source="GPZ7lqjeVTmN1H2Yv92S-30" target="GPZ7lqjeVTmN1H2Yv92S-35">
          <mxGeometry relative="1" as="geometry" />
        </mxCell>
        <mxCell id="GPZ7lqjeVTmN1H2Yv92S-43" value="public key" style="rounded=0;whiteSpace=wrap;html=1;" vertex="1" parent="1">
          <mxGeometry x="400" y="510" width="80" height="40" as="geometry" />
        </mxCell>
        <mxCell id="GPZ7lqjeVTmN1H2Yv92S-46" value="" style="rounded=1;whiteSpace=wrap;html=1;fontSize=10;" vertex="1" parent="1">
          <mxGeometry x="280" y="600" width="100" height="90" as="geometry" />
        </mxCell>
        <mxCell id="GPZ7lqjeVTmN1H2Yv92S-47" value="RSA" style="text;html=1;align=center;verticalAlign=middle;whiteSpace=wrap;rounded=0;" vertex="1" parent="1">
          <mxGeometry x="300" y="604" width="60" height="30" as="geometry" />
        </mxCell>
        <mxCell id="GPZ7lqjeVTmN1H2Yv92S-52" style="edgeStyle=orthogonalEdgeStyle;rounded=0;orthogonalLoop=1;jettySize=auto;html=1;" edge="1" parent="1" source="GPZ7lqjeVTmN1H2Yv92S-48">
          <mxGeometry relative="1" as="geometry">
            <mxPoint x="40" y="470" as="targetPoint" />
          </mxGeometry>
        </mxCell>
        <mxCell id="GPZ7lqjeVTmN1H2Yv92S-48" value="data" style="rounded=0;whiteSpace=wrap;html=1;" vertex="1" parent="1">
          <mxGeometry x="290" y="640" width="80" height="40" as="geometry" />
        </mxCell>
        <mxCell id="GPZ7lqjeVTmN1H2Yv92S-49" style="edgeStyle=orthogonalEdgeStyle;rounded=0;orthogonalLoop=1;jettySize=auto;html=1;entryX=1;entryY=0.5;entryDx=0;entryDy=0;" edge="1" parent="1" source="GPZ7lqjeVTmN1H2Yv92S-43" target="GPZ7lqjeVTmN1H2Yv92S-48">
          <mxGeometry relative="1" as="geometry">
            <Array as="points">
              <mxPoint x="440" y="660" />
            </Array>
          </mxGeometry>
        </mxCell>
        <mxCell id="GPZ7lqjeVTmN1H2Yv92S-63" value="decryption" style="rounded=0;whiteSpace=wrap;html=1;" vertex="1" parent="1">
          <mxGeometry x="40" y="420" width="80" height="40" as="geometry" />
        </mxCell>
        <mxCell id="GPZ7lqjeVTmN1H2Yv92S-66" value="private key" style="text;html=1;align=center;verticalAlign=middle;whiteSpace=wrap;rounded=0;" vertex="1" parent="1">
          <mxGeometry x="70" y="460" width="60" height="30" as="geometry" />
        </mxCell>
        <mxCell id="GPZ7lqjeVTmN1H2Yv92S-67" value="security" style="text;html=1;align=center;verticalAlign=middle;whiteSpace=wrap;rounded=0;" vertex="1" parent="1">
          <mxGeometry x="180" y="360" width="60" height="30" as="geometry" />
        </mxCell>
      </root>
    </mxGraphModel>
  </diagram>
</mxfile>
